Lonely Hearts *2006*[BluRay][1080p][ENG, POL]

General information:
Country: Germany, USA 
Release: 30 April 2006 (Tribeca Film Festival)
Genre: Crime, Drama, Romance, Thriller 
Director: Todd Robinson
Screenplay: Todd Robinson
Original Music: Mychael Danna 
Cinematography by: Peter Levy 
Duration: 1h 47mn
Language: English, POlish
Subtitles: English, POlish
Rating: 7.2/10 - 2246 votes 

Cast:
John Travolta  ...  Det. Elmer Robinson  
James Gandolfini  ...  Det. Charles Hilderbrandt  
Jared Leto  ...  Ray Fernandez  
Salma Hayek  ...  Martha Beck  
Scott Caan  ...  Det. Reilly  
Laura Dern  ...  Rene Fodie  
Michael Gaston  ...  D.A. Hunt  
Bruce MacVittie  ...  Det. Eastman  
Dan Byrd  ...  Eddie Robinson  
Andrew Wheeler  ...  Det. Tooley  
Alice Krige  ...  Janet Long  
Dagmara Dominczyk  ...  Delphine Downing  
John Doman  ...  Chief MacSwain  
Bailee Madison  ...  Rainelle Downing  
Ellen Travolta  ...  Ida  

Plot:
Based on the true story, two homicide detectives track Martha Beck and Raymond Martinez Fernandez, a murderous pair known as the "Lonely Hearts Killers" who lured their victims through the personals. 

Specifications:
General
Format                           : Matroska
Overall bit rate                 : 9 943 Kbps
Writing library                  : libebml v1.0.0 + libmatroska v1.0.0

Video
Format                           : AVC
Format/Info                      : Advanced Video Codec
Format profile                   : High@L4.1
Format settings, CABAC           : Yes
Format settings, ReFrames        : 3 frames
Format settings, GOP             : M=4, N=29
Muxing mode                      : Container profile=Unknown@4.1
Codec ID                         : V_MPEG4/ISO/AVC
Bit rate                         : 8 677 Kbps
Width                            : 1 920 pixels
Height                           : 1 080 pixels
Display aspect ratio             : 16:9
Frame rate                       : 23.976 fps

Audio 1
Format                           : AC-3
Format/Info                      : Audio Coding 3
Mode extension                   : CM (complete main)
Codec ID                         : A_AC3
Bit rate mode                    : Constant
Bit rate                         : 640 Kbps
Channel(s)                       : 6 channels
Channel positions                : Front: L C R, Side: L R, LFE
Sampling rate                    : 48.0 KHz
Stream size                      : 493 MiB (6%)
Title                            : English

Audio 2
Format                           : AC-3
Format/Info                      : Audio Coding 3
Mode extension                   : CM (complete main)
Codec ID                         : A_AC3
Bit rate mode                    : Constant
Bit rate                         : 640 Kbps
Channel(s)                       : 6 channels
Channel positions                : Front: L C R, Side: L R, LFE
Sampling rate                    : 48.0 KHz
Stream size                      : 493 MiB (6%)
Title                            : Polish
Language                         : Polish

Text 1
Format                           : UTF-8
Codec ID                         : S_TEXT/UTF8
Codec ID/Info                    : UTF-8 Plain Text
Title                            : English

Text 2
Format                           : UTF-8
Codec ID                         : S_TEXT/UTF8
Codec ID/Info                    : UTF-8 Plain Text
Title                            : Polish
Language                         : Polish
